<svg width="70" height="70" viewBox="0 0 70 70" fill="none" xmlns="http://www.w3.org/2000/svg">
<path d="M58.4348 0H11.5652C5.17391 0 0 5.17391 0 11.5652V58.4348C0 64.8261 5.17391 70 11.5652 70H58.4348C64.8261 70 70 64.8261 70 58.4348V11.5652C70 5.17391 64.8261 0 58.4348 0ZM17.9565 52.9565C17.9565 53.8696 17.3478 54.4783 16.4348 54.4783C15.5217 54.4783 14.913 53.8696 14.913 52.9565V45.6522C15.2174 45.0435 15.8261 44.1304 16.7391 44.1304C17.6522 44.1304 18.2609 44.7391 18.2609 45.6522V52.9565H17.9565ZM25.5652 52.9565C25.5652 53.8696 24.9565 54.4783 24.0435 54.4783C23.1304 54.4783 22.5217 53.8696 22.5217 52.9565V35C22.5217 34.087 23.1304 33.4783 24.0435 33.4783C24.9565 33.4783 25.5652 34.087 25.5652 35V52.9565ZM32.8696 52.9565C32.8696 53.8696 32.2609 54.4783 31.3478 54.4783C30.4348 54.4783 29.8261 53.8696 29.8261 52.9565V40.4783C29.8261 39.5652 30.4348 38.9565 31.3478 38.9565C32.2609 38.9565 32.8696 39.5652 32.8696 40.4783V52.9565ZM40.1739 52.9565C40.1739 53.8696 39.5652 54.4783 38.6522 54.4783C37.7391 54.4783 37.1304 53.8696 37.1304 52.9565V29.8261C37.1304 28.913 37.7391 28.3043 38.6522 28.3043C39.5652 28.3043 40.1739 28.913 40.1739 29.8261V52.9565ZM47.4783 52.9565C47.4783 53.8696 46.8696 54.4783 45.9565 54.4783C45.0435 54.4783 44.4348 53.8696 44.4348 52.9565V35C44.4348 34.087 45.0435 33.4783 45.9565 33.4783C46.8696 33.4783 47.4783 34.087 47.4783 35V52.9565ZM54.7826 52.9565C54.7826 53.8696 54.1739 54.4783 53.2609 54.4783C52.3478 54.4783 51.7391 53.8696 51.7391 52.9565V24.6522C51.7391 23.7391 52.3478 23.1304 53.2609 23.1304C54.1739 23.1304 54.7826 23.7391 54.7826 24.6522V52.9565ZM53.2609 18.5652H16.7391C15.8261 18.5652 15.2174 17.9565 15.2174 17.0435C15.2174 16.1304 15.8261 15.5217 16.7391 15.5217H53.2609C54.1739 15.5217 54.7826 16.1304 54.7826 17.0435C54.7826 17.9565 54.1739 18.5652 53.2609 18.5652Z" fill="#F5F5F5"/>
</svg>
