<svg width="135" height="135" viewBox="0 0 135 135" fill="none" xmlns="http://www.w3.org/2000/svg">
<path d="M112.696 0H22.3043C9.97826 0 0 9.97826 0 22.3043V112.696C0 125.022 9.97826 135 22.3043 135H112.696C125.022 135 135 125.022 135 112.696V22.3043C135 9.97826 125.022 0 112.696 0ZM34.6304 102.13C34.6304 103.891 33.4565 105.065 31.6957 105.065C29.9348 105.065 28.7609 103.891 28.7609 102.13V88.0435C29.3478 86.8696 30.5217 85.1087 32.2826 85.1087C34.0435 85.1087 35.2174 86.2826 35.2174 88.0435V102.13H34.6304ZM49.3043 102.13C49.3043 103.891 48.1304 105.065 46.3696 105.065C44.6087 105.065 43.4348 103.891 43.4348 102.13V67.5C43.4348 65.7391 44.6087 64.5652 46.3696 64.5652C48.1304 64.5652 49.3043 65.7391 49.3043 67.5V102.13ZM63.3913 102.13C63.3913 103.891 62.2174 105.065 60.4565 105.065C58.6956 105.065 57.5217 103.891 57.5217 102.13V78.0652C57.5217 76.3043 58.6956 75.1304 60.4565 75.1304C62.2174 75.1304 63.3913 76.3043 63.3913 78.0652V102.13ZM77.4783 102.13C77.4783 103.891 76.3043 105.065 74.5435 105.065C72.7826 105.065 71.6087 103.891 71.6087 102.13V57.5217C71.6087 55.7609 72.7826 54.587 74.5435 54.587C76.3043 54.587 77.4783 55.7609 77.4783 57.5217V102.13ZM91.5652 102.13C91.5652 103.891 90.3913 105.065 88.6304 105.065C86.8696 105.065 85.6956 103.891 85.6956 102.13V67.5C85.6956 65.7391 86.8696 64.5652 88.6304 64.5652C90.3913 64.5652 91.5652 65.7391 91.5652 67.5V102.13ZM105.652 102.13C105.652 103.891 104.478 105.065 102.717 105.065C100.957 105.065 99.7826 103.891 99.7826 102.13V47.5435C99.7826 45.7826 100.957 44.6087 102.717 44.6087C104.478 44.6087 105.652 45.7826 105.652 47.5435V102.13ZM102.717 35.8043H32.2826C30.5217 35.8043 29.3478 34.6304 29.3478 32.8696C29.3478 31.1087 30.5217 29.9348 32.2826 29.9348H102.717C104.478 29.9348 105.652 31.1087 105.652 32.8696C105.652 34.6304 104.478 35.8043 102.717 35.8043Z" fill="black"/>
</svg>
